<mxfile host="app.diagrams.net" modified="2021-10-30T09:54:57.572Z" agent="5.0 (Windows NT 10.0; Win64; x64) AppleWebKit/537.36 (KHTML, like Gecko) Chrome/94.0.4606.81 Safari/537.36 OPR/80.0.4170.61" etag="RxtDm2W1RDKDFeYKCiS6" version="15.6.2" type="github">
  <diagram id="exLiGp_EqTZgB172cu6d" name="Page-1">
    <mxGraphModel dx="1973" dy="1091" grid="1" gridSize="10" guides="1" tooltips="1" connect="1" arrows="1" fold="1" page="1" pageScale="1" pageWidth="850" pageHeight="1100" math="0" shadow="0">
      <root>
        <mxCell id="0" />
        <mxCell id="1" parent="0" />
        <mxCell id="VKYtbs2bJVNRNzy2i8he-1" value="Shop" style="swimlane;" vertex="1" parent="1">
          <mxGeometry x="440" y="50" width="140" height="140" as="geometry" />
        </mxCell>
        <mxCell id="VKYtbs2bJVNRNzy2i8he-17" style="edgeStyle=orthogonalEdgeStyle;rounded=0;orthogonalLoop=1;jettySize=auto;html=1;entryX=0.5;entryY=1;entryDx=0;entryDy=0;fillColor=none;elbow=vertical;endArrow=diamond;endFill=1;endSize=23;" edge="1" parent="1" source="VKYtbs2bJVNRNzy2i8he-2" target="VKYtbs2bJVNRNzy2i8he-1">
          <mxGeometry relative="1" as="geometry" />
        </mxCell>
        <mxCell id="VKYtbs2bJVNRNzy2i8he-18" value="1*" style="edgeLabel;html=1;align=center;verticalAlign=middle;resizable=0;points=[];" vertex="1" connectable="0" parent="VKYtbs2bJVNRNzy2i8he-17">
          <mxGeometry x="-0.271" relative="1" as="geometry">
            <mxPoint as="offset" />
          </mxGeometry>
        </mxCell>
        <mxCell id="VKYtbs2bJVNRNzy2i8he-2" value="Product" style="swimlane;startSize=23;" vertex="1" parent="1">
          <mxGeometry x="440" y="250" width="140" height="140" as="geometry" />
        </mxCell>
        <mxCell id="VKYtbs2bJVNRNzy2i8he-19" style="edgeStyle=orthogonalEdgeStyle;rounded=0;orthogonalLoop=1;jettySize=auto;html=1;endArrow=diamondThin;endFill=0;fillColor=none;elbow=vertical;strokeWidth=1;endSize=23;" edge="1" parent="1" source="VKYtbs2bJVNRNzy2i8he-3">
          <mxGeometry relative="1" as="geometry">
            <mxPoint x="580" y="140" as="targetPoint" />
            <Array as="points">
              <mxPoint x="640" y="140" />
              <mxPoint x="640" y="140" />
            </Array>
          </mxGeometry>
        </mxCell>
        <mxCell id="VKYtbs2bJVNRNzy2i8he-21" value="1*" style="edgeLabel;html=1;align=center;verticalAlign=middle;resizable=0;points=[];" vertex="1" connectable="0" parent="VKYtbs2bJVNRNzy2i8he-19">
          <mxGeometry x="-0.1967" y="1" relative="1" as="geometry">
            <mxPoint as="offset" />
          </mxGeometry>
        </mxCell>
        <mxCell id="VKYtbs2bJVNRNzy2i8he-3" value="ShopingCart" style="swimlane;startSize=23;" vertex="1" parent="1">
          <mxGeometry x="680" y="70" width="140" height="140" as="geometry" />
        </mxCell>
        <mxCell id="VKYtbs2bJVNRNzy2i8he-8" style="edgeStyle=orthogonalEdgeStyle;rounded=0;orthogonalLoop=1;jettySize=auto;html=1;entryX=1;entryY=0.5;entryDx=0;entryDy=0;" edge="1" parent="1" source="VKYtbs2bJVNRNzy2i8he-4" target="VKYtbs2bJVNRNzy2i8he-3">
          <mxGeometry relative="1" as="geometry" />
        </mxCell>
        <mxCell id="VKYtbs2bJVNRNzy2i8he-9" value="1" style="edgeLabel;html=1;align=center;verticalAlign=middle;resizable=0;points=[];" vertex="1" connectable="0" parent="VKYtbs2bJVNRNzy2i8he-8">
          <mxGeometry x="-0.2444" relative="1" as="geometry">
            <mxPoint x="-6" as="offset" />
          </mxGeometry>
        </mxCell>
        <mxCell id="VKYtbs2bJVNRNzy2i8he-4" value="Customer" style="swimlane;startSize=23;" vertex="1" parent="1">
          <mxGeometry x="910" y="70" width="140" height="140" as="geometry" />
        </mxCell>
        <mxCell id="VKYtbs2bJVNRNzy2i8he-7" style="edgeStyle=orthogonalEdgeStyle;rounded=0;orthogonalLoop=1;jettySize=auto;html=1;entryX=0.5;entryY=1;entryDx=0;entryDy=0;shape=flexArrow;endWidth=10.485436893203882;endSize=5.4893203883495145;width=0.3883495145631068;" edge="1" parent="1" source="VKYtbs2bJVNRNzy2i8he-5" target="VKYtbs2bJVNRNzy2i8he-6">
          <mxGeometry relative="1" as="geometry">
            <Array as="points">
              <mxPoint x="310" y="430" />
              <mxPoint x="310" y="430" />
            </Array>
          </mxGeometry>
        </mxCell>
        <mxCell id="VKYtbs2bJVNRNzy2i8he-23" value="1" style="edgeLabel;html=1;align=center;verticalAlign=middle;resizable=0;points=[];" vertex="1" connectable="0" parent="VKYtbs2bJVNRNzy2i8he-7">
          <mxGeometry x="-0.2148" y="1" relative="1" as="geometry">
            <mxPoint as="offset" />
          </mxGeometry>
        </mxCell>
        <mxCell id="VKYtbs2bJVNRNzy2i8he-5" value="ShopManager" style="swimlane;startSize=23;" vertex="1" parent="1">
          <mxGeometry x="240" y="490" width="140" height="140" as="geometry" />
        </mxCell>
        <mxCell id="VKYtbs2bJVNRNzy2i8he-20" style="edgeStyle=orthogonalEdgeStyle;rounded=0;orthogonalLoop=1;jettySize=auto;html=1;entryX=0;entryY=0.5;entryDx=0;entryDy=0;endArrow=diamondThin;endFill=1;endSize=23;strokeWidth=1;fillColor=none;elbow=vertical;" edge="1" parent="1" source="VKYtbs2bJVNRNzy2i8he-6" target="VKYtbs2bJVNRNzy2i8he-1">
          <mxGeometry relative="1" as="geometry">
            <Array as="points">
              <mxPoint x="310" y="240" />
              <mxPoint x="400" y="240" />
              <mxPoint x="400" y="120" />
            </Array>
          </mxGeometry>
        </mxCell>
        <mxCell id="VKYtbs2bJVNRNzy2i8he-22" value="1*" style="edgeLabel;html=1;align=center;verticalAlign=middle;resizable=0;points=[];" vertex="1" connectable="0" parent="VKYtbs2bJVNRNzy2i8he-20">
          <mxGeometry x="-0.3778" y="2" relative="1" as="geometry">
            <mxPoint as="offset" />
          </mxGeometry>
        </mxCell>
        <mxCell id="VKYtbs2bJVNRNzy2i8he-6" value="Employee" style="swimlane;startSize=23;" vertex="1" parent="1">
          <mxGeometry x="240" y="260" width="140" height="140" as="geometry" />
        </mxCell>
        <mxCell id="VKYtbs2bJVNRNzy2i8he-10" value="Article" style="swimlane;startSize=23;" vertex="1" parent="1">
          <mxGeometry x="1200" y="120" width="140" height="140" as="geometry" />
        </mxCell>
        <mxCell id="VKYtbs2bJVNRNzy2i8he-15" style="edgeStyle=orthogonalEdgeStyle;shape=flexArrow;rounded=0;orthogonalLoop=1;jettySize=auto;html=1;entryX=0.5;entryY=1;entryDx=0;entryDy=0;fillColor=none;elbow=vertical;width=0.5426356589147286;endSize=5.889147286821705;" edge="1" parent="1" source="VKYtbs2bJVNRNzy2i8he-11" target="VKYtbs2bJVNRNzy2i8he-10">
          <mxGeometry relative="1" as="geometry">
            <Array as="points">
              <mxPoint x="1150" y="300" />
              <mxPoint x="1270" y="300" />
            </Array>
          </mxGeometry>
        </mxCell>
        <mxCell id="VKYtbs2bJVNRNzy2i8he-24" value="*" style="edgeLabel;html=1;align=center;verticalAlign=middle;resizable=0;points=[];" vertex="1" connectable="0" parent="VKYtbs2bJVNRNzy2i8he-15">
          <mxGeometry x="-0.4904" y="-2" relative="1" as="geometry">
            <mxPoint as="offset" />
          </mxGeometry>
        </mxCell>
        <mxCell id="VKYtbs2bJVNRNzy2i8he-11" value="Faq" style="swimlane;startSize=23;" vertex="1" parent="1">
          <mxGeometry x="1080" y="330" width="140" height="140" as="geometry" />
        </mxCell>
        <mxCell id="VKYtbs2bJVNRNzy2i8he-16" style="edgeStyle=orthogonalEdgeStyle;shape=flexArrow;rounded=0;orthogonalLoop=1;jettySize=auto;html=1;fillColor=none;elbow=vertical;width=0.38759689922480617;endSize=5.837209302325581;" edge="1" parent="1" source="VKYtbs2bJVNRNzy2i8he-12">
          <mxGeometry relative="1" as="geometry">
            <mxPoint x="1270" y="260" as="targetPoint" />
            <Array as="points">
              <mxPoint x="1380" y="300" />
              <mxPoint x="1270" y="300" />
            </Array>
          </mxGeometry>
        </mxCell>
        <mxCell id="VKYtbs2bJVNRNzy2i8he-25" value="*" style="edgeLabel;html=1;align=center;verticalAlign=middle;resizable=0;points=[];" vertex="1" connectable="0" parent="VKYtbs2bJVNRNzy2i8he-16">
          <mxGeometry x="-0.3912" y="3" relative="1" as="geometry">
            <mxPoint as="offset" />
          </mxGeometry>
        </mxCell>
        <mxCell id="VKYtbs2bJVNRNzy2i8he-12" value="NewsArticle" style="swimlane;startSize=23;" vertex="1" parent="1">
          <mxGeometry x="1310" y="330" width="140" height="140" as="geometry" />
        </mxCell>
      </root>
    </mxGraphModel>
  </diagram>
</mxfile>
